Coordinates
version=1
nRows=27
nColumns=12
inDegrees=yes

Units are S.I. units (second, meters, Newtons, ...)
Angles are in degrees

endheader
time	SC_y	SC_z	SC_x	AC_y	AC_z	AC_x	GH_y	GH_z	GH_yy	EL_x	PS_y
       0.0              -59.16          9.878           22.6          69.72           8.33          7.394         -40.61          51.18         -97.01           70.9          152.1
   0.02329              -59.16          9.878          22.61          69.71          8.328          7.395          -40.6          51.18         -96.98           70.9          152.1
   0.04659              -59.15          9.878          22.62          69.71          8.327          7.396          -40.6          51.19         -96.94           70.9          152.1
   0.06988              -59.15          9.878          22.62          69.71          8.326          7.397         -40.59          51.19          -96.9           70.9          152.1
   0.09318              -59.14          9.878          22.63           69.7          8.325          7.398         -40.58          51.19         -96.86          70.89          152.1
    0.1165              -59.14          9.878          22.64           69.7          8.323          7.399         -40.58           51.2         -96.82          70.89          152.0
    0.1398              -59.13          9.879          22.65          69.69          8.322            7.4         -40.57           51.2         -96.77          70.89          152.0
    0.1631              -59.13          9.879          22.66          69.69           8.32          7.401         -40.56           51.2         -96.72          70.89          152.0
    0.1864              -59.12          9.879          22.67          69.68          8.318          7.402         -40.55          51.21         -96.67          70.88          152.0
    0.2097              -59.11          9.879          22.68          69.68          8.316          7.403         -40.54          51.21         -96.61          70.88          152.0
    0.2329              -59.11           9.88          22.69          69.67          8.314          7.405         -40.53          51.22         -96.55          70.87          151.9
    0.2562               -59.1           9.88          22.71          69.66          8.312          7.406         -40.52          51.22         -96.48          70.87          151.9
    0.2795              -59.09           9.88          22.72          69.66          8.309          7.408         -40.51          51.23         -96.41          70.87          151.9
    0.3028              -59.08           9.88          22.74          69.65          8.307           7.41          -40.5          51.24         -96.34          70.86          151.8
    0.3261              -59.07          9.881          22.75          69.64          8.304          7.412         -40.48          51.24         -96.25          70.86          151.8
    0.3494              -59.06          9.881          22.77          69.63          8.301          7.414         -40.47          51.25         -96.16          70.85          151.8
    0.3727              -59.05          9.881          22.79          69.62          8.298          7.416         -40.45          51.26         -96.06          70.84          151.7
     0.396              -59.04          9.882          22.81          69.61          8.294          7.418         -40.43          51.26         -95.96          70.84          151.7
    0.4193              -59.02          9.882          22.83           69.6           8.29          7.421         -40.41          51.27         -95.84          70.83          151.6
    0.4426              -59.01          9.883          22.86          69.58          8.286          7.424         -40.39          51.28         -95.71          70.82          151.6
    0.4659              -58.99          9.883          22.89          69.57          8.281          7.427         -40.37           51.3         -95.57          70.81          151.5
    0.4892              -58.98          9.884          22.92          69.55          8.276          7.431         -40.34          51.31         -95.42           70.8          151.4
    0.5125              -58.96          9.885          22.95          69.54           8.27          7.435         -40.31          51.32         -95.25          70.79          151.4
    0.5358              -58.93          9.885          22.99          69.52          8.264          7.439         -40.28          51.34         -95.06          70.78          151.3
    0.5591              -58.91          9.886          23.03          69.49          8.257          7.444         -40.24          51.35         -94.85          70.76          151.2
    0.5824              -58.88          9.887          23.08          69.47          8.249          7.449         -40.21          51.37         -94.62          70.75          151.1
    0.6057              -58.85          9.888          23.13          69.44           8.24          7.455         -40.16          51.39         -94.35          70.73          151.0
